<?xml version="1.0" encoding="UTF-8"?>
<svg xmlns="http://www.w3.org/2000/svg" width="1040" height="260" viewBox="0 0 1040 260" role="img" aria-labelledby="title desc">
  <title id="title">Lockup simplificado Multi PRO en contornos en reverso</title>
  <desc id="desc">Versión sin lemas para tamaños medianos sobre fondos oscuros.</desc>

  <g transform="translate(10 -30) scale(.65)">
    <path fill="#FFFFFF" d="M40 88h84l52 56 52-56h84v336h-84V240l-52 52-52-52v184H40V88Z"/>
    <path fill="#6F21F5" d="m176 292 52-52v184h-52V292Z"/>
    <path fill="#FF5A3C" fill-rule="evenodd" d="M326 88h76c48 0 86 38 86 92s-38 92-86 92h-4v152h-72V88Zm72 64v56h8c18 0 30-10 30-28s-12-28-30-28h-8Z"/>
  </g>

  <g fill="#FFFFFF" transform="translate(360 28)">
      <path d="M 4.75 0 L 15.066406 -110.878906 L 41.863281 -110.878906 L 66.234375 -3.363281 L 55.117188 -3.363281 L 79.269531 -110.878906 L 106.15625 -110.878906 L 116.628906 0 L 94.117188 0 L 85.40625 -103.808594 L 93.386719 -103.746094 L 70.597656 0 L 49.640625 0 L 27.027344 -103.207031 L 34.765625 -103.269531 L 26.207031 0 Z M 4.75 0 " transform="translate(0 149.375)"/>
      <path d="M 29.835938 1.539062 C 25.191406 1.539062 21.179688 0.535156 17.804688 -1.46875 C 14.429688 -3.476562 11.855469 -6.25 10.082031 -9.792969 C 8.304688 -13.332031 7.417969 -17.425781 7.417969 -22.074219 L 7.417969 -78.539062 L 29.746094 -78.539062 L 29.746094 -26.925781 C 29.746094 -23.382812 30.601562 -20.726562 32.308594 -18.953125 C 34.015625 -17.183594 36.390625 -16.296875 39.4375 -16.296875 C 42.242188 -16.296875 44.679688 -16.992188 46.75 -18.378906 C 48.820312 -19.761719 50.460938 -21.664062 51.667969 -24.074219 C 52.871094 -26.488281 53.476562 -29.207031 53.476562 -32.238281 L 55.800781 -16.503906 C 53.488281 -10.984375 50.136719 -6.597656 45.742188 -3.34375 C 41.351562 -0.0859375 36.046875 1.539062 29.835938 1.539062 Z M 54.066406 0 L 54.066406 -16.941406 L 53.476562 -16.941406 L 53.476562 -78.539062 L 75.804688 -78.539062 L 75.804688 0 Z M 54.066406 0 " transform="translate(119.90625 149.375)"/>
      <path d="M 8.214844 0 L 8.214844 -110.878906 L 30.542969 -110.878906 L 30.542969 0 Z M 8.214844 0 " transform="translate(203.984375 149.375)"/>
      <path d="M 41.757812 1.628906 C 32.554688 1.628906 25.726562 -0.601562 21.277344 -5.058594 C 16.828125 -9.519531 14.605469 -16.289062 14.605469 -25.371094 L 14.605469 -95.132812 L 36.933594 -104.078125 L 36.933594 -24.921875 C 36.933594 -21.964844 37.769531 -19.738281 39.441406 -18.238281 C 41.117188 -16.738281 43.710938 -15.992188 47.230469 -15.992188 C 48.546875 -15.992188 49.773438 -16.121094 50.914062 -16.386719 C 52.058594 -16.652344 53.191406 -16.992188 54.308594 -17.402344 L 54.308594 -0.507812 C 53.105469 0.179688 51.390625 0.710938 49.171875 1.078125 C 46.949219 1.445312 44.480469 1.628906 41.757812 1.628906 Z M 1.898438 -61.367188 L 1.898438 -78.539062 L 54.054688 -78.539062 L 54.054688 -61.367188 Z M 1.898438 -61.367188 " transform="translate(242.796875 149.375)"/>
      <path d="M 8.214844 0 L 8.214844 -78.539062 L 30.542969 -78.539062 L 30.542969 0 Z M 7.570312 -88.691406 L 7.570312 -112.675781 L 31.183594 -112.675781 L 31.183594 -88.691406 Z M 7.570312 -88.691406 " transform="translate(300.25 149.375)"/>
  </g>
  <g fill="#FF5A3C" transform="translate(725 28)">
      <path d="M 7.699219 0 L 7.699219 -110.878906 L 50.035156 -110.878906 C 57.679688 -110.878906 64.265625 -109.453125 69.789062 -106.601562 C 75.316406 -103.746094 79.585938 -99.742188 82.609375 -94.589844 C 85.628906 -89.433594 87.136719 -83.351562 87.136719 -76.34375 C 87.136719 -69.382812 85.625 -63.300781 82.59375 -58.109375 C 79.566406 -52.917969 75.289062 -48.886719 69.765625 -46.027344 C 64.238281 -43.164062 57.664062 -41.734375 50.035156 -41.734375 L 25.71875 -41.734375 L 25.71875 -59.394531 L 49.125 -59.394531 C 53.96875 -59.394531 57.691406 -60.863281 60.289062 -63.808594 C 62.890625 -66.75 64.191406 -70.933594 64.191406 -76.351562 C 64.191406 -81.773438 62.890625 -85.9375 60.289062 -88.851562 C 57.691406 -91.765625 53.96875 -93.222656 49.125 -93.222656 L 30.644531 -93.222656 L 30.644531 0 Z M 7.699219 0 " transform="translate(0 149.375)"/>
      <path d="M 7.699219 0 L 7.699219 -110.878906 L 50.230469 -110.878906 C 57.636719 -110.878906 63.902344 -109.582031 69.023438 -106.992188 C 74.144531 -104.398438 78.035156 -100.820312 80.703125 -96.25 C 83.367188 -91.679688 84.699219 -86.375 84.699219 -80.335938 C 84.699219 -72.722656 82.46875 -66.539062 78.007812 -61.792969 C 73.546875 -57.042969 66.777344 -53.621094 57.699219 -51.527344 L 58.339844 -57.222656 C 66.65625 -56.832031 72.820312 -54.558594 76.832031 -50.402344 C 80.84375 -46.25 82.851562 -40.5625 82.851562 -33.339844 L 82.851562 0 L 59.90625 0 L 59.90625 -29.335938 C 59.90625 -34.90625 58.664062 -39.039062 56.183594 -41.734375 C 53.703125 -44.429688 49.957031 -45.777344 44.941406 -45.777344 L 20.148438 -45.777344 L 20.148438 -63.113281 L 47.148438 -63.113281 C 51.8125 -63.113281 55.410156 -64.433594 57.949219 -67.074219 C 60.484375 -69.710938 61.753906 -73.5 61.753906 -78.4375 C 61.753906 -83.390625 60.5 -87.15625 57.992188 -89.738281 C 55.488281 -92.316406 51.871094 -93.605469 47.148438 -93.605469 L 30.644531 -93.605469 L 30.644531 0 Z M 7.699219 0 " transform="translate(90.390625 149.375)"/>
      <path d="M 53.039062 1.539062 C 45.769531 1.539062 39.160156 0.21875 33.210938 -2.425781 C 27.265625 -5.070312 22.167969 -8.890625 17.921875 -13.886719 C 13.671875 -18.882812 10.394531 -24.917969 8.085938 -31.992188 C 5.773438 -39.070312 4.621094 -47.039062 4.621094 -55.902344 C 4.621094 -67.625 6.605469 -77.699219 10.574219 -86.125 C 14.542969 -94.550781 20.164062 -101.042969 27.429688 -105.59375 C 34.699219 -110.144531 43.183594 -112.421875 52.886719 -112.421875 C 62.792969 -112.421875 71.367188 -110.15625 78.605469 -105.625 C 85.839844 -101.09375 91.460938 -94.589844 95.460938 -86.113281 C 99.460938 -77.632812 101.460938 -67.511719 101.460938 -55.746094 C 101.460938 -46.945312 100.304688 -39.003906 97.996094 -31.929688 C 95.683594 -24.855469 92.40625 -18.828125 88.15625 -13.855469 C 83.910156 -8.878906 78.8125 -5.070312 72.867188 -2.425781 C 66.921875 0.21875 60.3125 1.539062 53.039062 1.539062 Z M 52.886719 -16.605469 C 58.070312 -16.605469 62.550781 -18.152344 66.320312 -21.246094 C 70.09375 -24.339844 73.019531 -28.816406 75.09375 -34.683594 C 77.167969 -40.546875 78.207031 -47.671875 78.207031 -56.054688 C 78.207031 -64.335938 77.183594 -71.324219 75.136719 -77.011719 C 73.09375 -82.703125 70.183594 -87 66.410156 -89.910156 C 62.640625 -92.820312 58.128906 -94.273438 52.886719 -94.273438 C 47.742188 -94.273438 43.285156 -92.820312 39.511719 -89.910156 C 35.742188 -87 32.859375 -82.726562 30.863281 -77.089844 C 28.871094 -71.453125 27.875 -64.441406 27.875 -56.054688 C 27.875 -47.613281 28.894531 -40.457031 30.941406 -34.59375 C 32.984375 -28.726562 35.882812 -24.261719 39.636719 -21.199219 C 43.386719 -18.136719 47.804688 -16.605469 52.886719 -16.605469 Z M 52.886719 -16.605469 " transform="translate(179.265625 149.375)"/>
  </g>
</svg>
